<?xml version="1.0" standalone="no"?>
<!DOCTYPE svg PUBLIC "-//W3C//DTD SVG 20010904//EN"
 "http://www.w3.org/TR/2001/REC-SVG-20010904/DTD/svg10.dtd">
<svg version="1.0" xmlns="http://www.w3.org/2000/svg"
 width="1000.000000pt" height="1000.000000pt" viewBox="0 0 1000.000000 1000.000000"
 preserveAspectRatio="xMidYMid meet">

<g transform="translate(0.000000,1000.000000) scale(0.100000,-0.100000)"
fill="#000000" stroke="none">
<path d="M4745 8963 c-285 -23 -497 -55 -715 -110 -1389 -345 -2488 -1418
-2870 -2803 -102 -368 -146 -737 -136 -1140 14 -617 145 -1147 417 -1690 693
-1382 2113 -2231 3659 -2187 587 17 1119 147 1635 400 402 198 731 433 1056
757 323 322 549 634 748 1030 296 591 433 1203 418 1865 -15 617 -147 1153
-418 1694 -626 1250 -1861 2077 -3254 2181 -128 9 -443 11 -540 3z m870 -2203
c937 -39 1625 -147 1926 -302 85 -43 125 -80 138 -125 5 -17 9 -487 10 -1044
0 -558 4 -1138 7 -1289 5 -204 4 -285 -5 -312 -111 -336 -2113 -553 -3851
-417 -666 52 -1155 146 -1400 269 -92 47 -130 84 -140 142 -5 24 -10 627 -11
1340 l-3 1297 30 38 c68 85 302 173 644 243 544 110 1206 165 2045 168 204 1
478 -3 610 -8z"/>
<path d="M4695 6643 c-960 -21 -1854 -145 -2190 -304 -93 -44 -96 -51 -28 -87
252 -132 892 -237 1743 -283 281 -16 1103 -16 1395 -1 893 47 1577 157 1857
298 38 19 68 39 68 44 0 16 -82 57 -185 93 -492 169 -1541 264 -2660 240z"/>
<path d="M4915 5586 c-196 -38 -357 -119 -485 -246 -99 -98 -149 -169 -197
-284 -62 -147 -77 -229 -77 -421 1 -151 4 -181 27 -269 105 -393 406 -632 822
-653 213 -10 414 26 568 103 40 20 73 38 75 39 2 2 -94 372 -114 437 -5 15
-16 12 -92 -26 -148 -74 -179 -81 -337 -81 -135 1 -142 2 -205 31 -82 39 -131
81 -169 147 -84 148 -91 381 -17 542 49 109 155 189 284 216 77 16 241 6 312
-19 30 -10 88 -36 129 -56 40 -21 75 -36 76 -34 2 2 31 98 65 213 33 116 63
216 65 223 7 19 -182 106 -275 127 -100 23 -360 29 -455 11z"/>
</g>
</svg>
